# xmcd
#
# Track frame offsets:
#	150
#	11654
#	23755
#	32781
#	43813
#	53961
#	67873
#	71977
#	78904
#	82211
#	90057
#	97055
#	105518
#	114101
#	117719
#	125943
#	134731
#	152395
#	157414
#	169047
#	171392
#	184373
#	193726
#	203408
#	213973
#	226697
#	239402
#	257491
#	267817
#
# Disc length: 3713 seconds
#
# Revision: 0
# Processed by: cddbd v1.5.2PL0 Copyright (c) Steve Scherf et al.
# Submitted via: EasyCDDAExtractor 12.0.1.1
#
DISCID=980e7f1d
DTITLE=Johnny Cash - Complete Recording Sessions [Cd 18] 1967-1968 Sessions
DYEAR=2005
DGENRE=Country
TTITLE0=Outside Looking In
TTITLE1=Spanish Harlem
TTITLE2=Rosanna's Going Wild
TTITLE3=Roll Call
TTITLE4=I Tremble For You
TTITLE5=The Fok Singer
TTITLE6=Prologue
TTITLE7=A Mother's Love
TTITLE8=Narr.: This Is Nazareth
TTITLE9=Narr.: He Turned The Water...
TTITLE10=Narr.
TTITLE11=Beautiful Words
TTITLE12=Narr.
TTITLE13=Narr.
TTITLE14=Narr.
TTITLE15=Narr.
TTITLE16=Narr.
TTITLE17=Narr.
TTITLE18=Narr.
TTITLE19=Narr.
TTITLE20=Land Of Israel
TTITLE21=Nazarene
TTITLE22=The Fourth Man
TTITLE23=Daddy Sang Bass
TTITLE24=He Turned The Water Into Wine
TTITLE25=Come To The Wailing Wall
TTITLE26=The Ten Commandments
TTITLE27=God Is Not Dead
TTITLE28=Shanty Town
EXTD=
EXTT0=
EXTT1=
EXTT2=
EXTT3=
EXTT4=
EXTT5=
EXTT6=
EXTT7=
EXTT8=
EXTT9=
EXTT10=
EXTT11=
EXTT12=
EXTT13=
EXTT14=
EXTT15=
EXTT16=
EXTT17=
EXTT18=
EXTT19=
EXTT20=
EXTT21=
EXTT22=
EXTT23=
EXTT24=
EXTT25=
EXTT26=
EXTT27=
EXTT28=
PLAYORDER=
